<?xml version="1.0" encoding="UTF-8" standalone="no"?>
<!-- Created with Inkscape (http://www.inkscape.org/) -->

<svg
   width="150mm"
   height="150mm"
   viewBox="0 0 150 150"
   version="1.1"
   id="svg1"
   inkscape:version="1.3.2 (091e20e, 2023-11-25)"
   sodipodi:docname="showtime_projector_only_outline.svg"
   inkscape:export-filename="showtime_projector_only_outline.png"
   inkscape:export-xdpi="96"
   inkscape:export-ydpi="96"
   xmlns:inkscape="http://www.inkscape.org/namespaces/inkscape"
   xmlns:sodipodi="http://sodipodi.sourceforge.net/DTD/sodipodi-0.dtd"
   xmlns="http://www.w3.org/2000/svg"
   xmlns:svg="http://www.w3.org/2000/svg">
  <sodipodi:namedview
     id="namedview1"
     pagecolor="#ffffff"
     bordercolor="#000000"
     borderopacity="0.25"
     inkscape:showpageshadow="2"
     inkscape:pageopacity="0.0"
     inkscape:pagecheckerboard="0"
     inkscape:deskcolor="#d1d1d1"
     inkscape:document-units="mm"
     inkscape:zoom="0.52266698"
     inkscape:cx="379.78294"
     inkscape:cy="588.32873"
     inkscape:window-width="1920"
     inkscape:window-height="1080"
     inkscape:window-x="0"
     inkscape:window-y="419"
     inkscape:window-maximized="0"
     inkscape:current-layer="layer1" />
  <defs
     id="defs1" />
  <g
     inkscape:label="Layer 1"
     inkscape:groupmode="layer"
     id="layer1">
    <g
       id="g18"
       inkscape:label="calendar outline version"
       transform="matrix(0.45655492,0,0,0.45655492,-147.78184,-133.50264)">
      <path
         id="path6"
         style="fill:#d8b45b;fill-opacity:1"
         inkscape:label="projector background"
         d="m 482.50632,332.52972 -124.50001,0.16406 -5.83593,2.64648 c -7.85996,3.56421 -12.82299,7.52938 -16.6543,13.3086 -6.1562,9.28612 -6.06749,8.18812 -6.02539,74.29687 0.0373,58.54113 0.0971,60.40425 2.11133,65.61524 4.25416,11.00586 17.07945,21.00031 29.13086,22.70117 8.41069,1.18708 247.16188,1.14491 254.73828,-0.0449 12.23993,-1.92221 21.89427,-8.71139 27.73242,-19.50391 2.67901,-4.95245 2.78588,-5.73626 3.35352,-24.47461 0.32254,-10.64741 0.55558,-38.96128 0.51758,-62.91797 -0.0686,-43.24454 -0.0867,-43.59667 -2.39063,-49.11914 -2.98758,-7.16126 -10.77074,-15.40644 -17.59179,-18.63672 -3.13293,-1.48367 -8.31042,-2.85236 -12.68946,-3.35351 -4.06864,-0.46563 -63.42162,-0.77204 -131.89648,-0.68164 z m -61.5,20.54882 c 11.9992,-0.0505 15.06455,0.26517 21.45312,2.20703 17.99487,5.46975 34.92009,18.795 42.87891,33.75586 5.99689,11.27287 8.16797,20.32797 8.16797,34.0879 0,13.44108 -2.07284,21.80979 -8.2793,33.43554 -6.00659,11.25136 -18.18935,22.87077 -29.7207,28.34571 -4.675,2.2196 -11.20002,4.75715 -14.5,5.63867 -5.86281,1.56613 -28.11835,2.71148 -33.5,1.72461 -22.26314,-4.08255 -42.4032,-19.0765 -51.98243,-38.70117 -7.9303,-16.24655 -9.22908,-37.20307 -3.32812,-53.72071 7.34155,-20.55015 24.95316,-37.07827 47.14258,-44.24023 6.70848,-2.16527 9.41767,-2.48171 21.66797,-2.53321 z m 149.78125,19.79102 c 26.01575,-0.004 33.4817,0.27607 36.16992,1.36328 6.21589,2.51392 7.42031,8.58299 2.625,13.22461 l -2.92383,2.82813 -36.32617,-0.0293 c -25.44134,-0.0206 -36.92548,-0.36112 -38.32617,-1.13867 -7.08031,-3.93041 -5.70995,-13.09643 2.27929,-15.24414 2.21006,-0.59412 17.02876,-1.00091 36.50196,-1.00391 z m -15.0625,41.77344 c 4.60683,-0.01 9.80514,0.007 15.52539,0.0508 l 36.42969,0.27539 2.41211,2.71484 c 4.48674,5.05089 2.38933,11.39657 -4.36719,13.21289 -4.697,1.26266 -68.4447,1.1928 -73.00391,-0.0801 -2.29251,-0.64004 -3.78288,-1.92984 -4.93555,-4.26954 -1.53786,-3.12165 -1.53531,-3.5839 0.0293,-6.75976 0.9452,-1.91857 2.84352,-3.83924 4.3418,-4.39063 1.25436,-0.46161 9.74785,-0.72454 23.56836,-0.7539 z" />
      <g
         id="g16"
         inkscape:label="lenses">
        <path
           id="path8"
           style="fill:#d8b45b;fill-opacity:1"
           inkscape:label="path8"
           d="m 421.37936,371.94378 c -5.44418,-0.0432 -10.91776,0.37479 -14.37304,1.26953 -16.46501,4.26359 -30.53367,17.5374 -36.56055,34.49609 -3.01414,8.48129 -3.03941,21.94842 -0.0566,31.04493 5.5553,16.94196 22.09,31.36275 39.68554,34.61523 24.637,4.55408 47.85569,-6.72785 58.65821,-28.50195 4.12386,-8.31226 4.28098,-8.9754 4.63086,-19.5625 0.41534,-12.5677 -0.5221,-16.9697 -5.67383,-26.63868 -6.32041,-11.86239 -18.35265,-21.31368 -32.11524,-25.22656 -3.33644,-0.94859 -8.75112,-1.45292 -14.19531,-1.49609 z m -0.37304,16.91015 c 11.08777,-0.0243 16.30717,2.11992 24.58593,10.09766 7.19266,6.93112 10.18894,13.9752 10.32032,24.26367 0.0813,6.36693 -0.31717,8.0825 -3.18164,13.7168 -4.09921,8.06296 -12.0221,15.33431 -19.76563,18.13867 -5.68777,2.05986 -16.3582,2.60692 -21.45898,1.09961 -5.2974,-1.5654 -10.67909,-4.92897 -15.07422,-9.42187 -5.89289,-6.02398 -7.41835,-8.49456 -9.47657,-15.34766 -4.38999,-14.61706 3.59257,-31.33398 18.73633,-39.23438 5.83098,-3.04197 7.0011,-3.2942 15.31446,-3.3125 z" />
      </g>
      <path
         id="path4"
         style="fill:#d4af56;fill-opacity:1"
         d="m 374.38847,577.95524 c -3.46887,-3.35769 -2.02886,-8.18587 8.98786,-30.13527 l 10.08092,-20.08493 h 20.13104 c 16.97878,0 20.04572,0.21521 19.58617,1.3744 -0.8227,2.07519 -35.63365,47.25391 -37.91013,49.20092 -1.55072,1.32629 -3.8012,1.69391 -10.36976,1.69391 -7.21028,0 -8.6867,-0.28795 -10.5061,-2.04903 z m 221.94346,0.83909 c -2.22596,-1.73124 -38.82658,-49.44433 -38.82658,-50.61487 0,-0.26648 9.1125,-0.36659 20.25,-0.22248 l 20.25,0.26203 10.70516,20.8109 c 11.28745,21.94286 12.38422,25.56413 8.79484,29.03846 -1.69727,1.64288 -3.33333,1.9359 -10.80887,1.9359 -5.55073,0 -9.38427,-0.44752 -10.36455,-1.20994 z"
         inkscape:label="legs" />
    </g>
  </g>
</svg>
