<?xml version="1.0" encoding="UTF-8" standalone="no"?>
<!-- Created with Inkscape (http://www.inkscape.org/) -->

<svg
   width="150mm"
   height="150mm"
   viewBox="0 0 150 150"
   version="1.1"
   id="svg1"
   inkscape:version="1.3.2 (091e20e, 2023-11-25)"
   sodipodi:docname="showtime_logo_outline.svg"
   inkscape:export-filename="showtime_logo_outline_export.svg"
   inkscape:export-xdpi="51.313133"
   inkscape:export-ydpi="51.313133"
   xmlns:inkscape="http://www.inkscape.org/namespaces/inkscape"
   xmlns:sodipodi="http://sodipodi.sourceforge.net/DTD/sodipodi-0.dtd"
   xmlns="http://www.w3.org/2000/svg"
   xmlns:svg="http://www.w3.org/2000/svg">
  <sodipodi:namedview
     id="namedview1"
     pagecolor="#ffffff"
     bordercolor="#000000"
     borderopacity="0.25"
     inkscape:showpageshadow="2"
     inkscape:pageopacity="0.0"
     inkscape:pagecheckerboard="0"
     inkscape:deskcolor="#d1d1d1"
     inkscape:document-units="mm"
     inkscape:zoom="0.63862323"
     inkscape:cx="378.94018"
     inkscape:cy="436.87731"
     inkscape:window-width="1512"
     inkscape:window-height="917"
     inkscape:window-x="223"
     inkscape:window-y="1564"
     inkscape:window-maximized="0"
     inkscape:current-layer="layer1" />
  <defs
     id="defs1" />
  <g
     inkscape:label="Layer 1"
     inkscape:groupmode="layer"
     id="layer1">
    <g
       id="g18"
       inkscape:label="calendar outline version"
       transform="matrix(0.26458333,0,0,0.26458333,-54.06324,-31.473366)">
      <path
         style="fill:#d6b259;fill-opacity:1"
         d="m 722.93667,652.42486 c 17.2122,-4.8878 31.8196,-19.9851 34.9263,-36.0978 0.6526,-3.3848 1.0052,-73.8562 1.0052,-200.888 0,-214.2441 0.365,-200.85527 -5.7787,-211.97952 -4.3042,-7.79346 -12.9222,-15.53891 -21.9128,-19.69425 l -7.8085,-3.60899 -25.25,-0.31535 -25.2501,-0.31536 v 9.75286 9.75286 h 22.54 c 25.2929,0 26.9124,0.35393 34.7949,7.60422 7.8972,7.26384 8.1264,8.22927 8.4776,35.71148 l 0.3124,24.44071 h -247.5625 -247.5623 l 0.01,-22.98879 c 0,-12.84894 0.4618,-24.57902 1.04,-26.59414 1.5284,-5.32701 6.8177,-11.46437 12.9511,-15.02765 l 5.4148,-3.14583 h 22.7942 22.7943 v -9.67949 -9.67949 l -22.25,0.0237 c -12.2375,0.013 -24.2247,0.46432 -26.6382,1.00289 -15.4723,3.4526 -29.4228,16.09301 -34.2173,31.0038 -1.8335,5.70248 -1.8941,12.2683 -1.8826,203.99344 0.01,164.3844 0.2444,198.9466 1.3782,203.0684 4.263,15.4971 17.6558,28.7853 34.1099,33.8435 3.1829,0.9785 50.3845,1.2429 231.0684,1.2945 204.945,0.058 227.5978,-0.085 232.5001,-1.4777 z m -456.0685,-17.7495 c -8.5766,-2.5492 -17.3945,-9.9198 -20.9249,-17.4902 -2.0155,-4.3221 -2.0314,-5.616 -2.0532,-167.6971 l -0.022,-163.34137 h 247.5 247.5 v 163.59387 163.5939 l -2.1377,4.4022 c -2.7369,5.6359 -9.5011,12.1786 -15.5924,15.082 l -4.7699,2.2736 -223.5,0.1631 c -122.925,0.09 -224.625,-0.1713 -226,-0.58 z m 328.9999,-445.32354 v -9.67949 h -105.5 -105.5 v 9.67949 9.67949 h 105.5 105.5 z"
         id="path16"
         sodipodi:nodetypes="csssscccccsssccccsscccccsssssscccssscccccssccssccccccccc"
         inkscape:label="calendar border" />
      <g
         id="g17"
         inkscape:label="calendar tabs">
        <path
           style="fill:#ba3d33;fill-opacity:1"
           d="m 621.7368,219.16592 c -4.16932,-1.62601 -4.38204,-3.41278 -4.34896,-36.52869 0.0369,-36.93896 -0.20243,-35.96126 9.14114,-37.34093 7.27076,-1.07359 17.34125,-0.25996 20.34259,1.64356 3.98488,2.52732 4.53833,6.97462 4.54428,36.51626 0.006,30.04036 -0.40911,32.93742 -5.05318,35.26199 -3.1867,1.5951 -20.86002,1.91648 -24.62587,0.44781 z"
           id="path14"
           inkscape:label="calendar right tab" />
        <path
           style="fill:#ba3d33;fill-opacity:1"
           d="m 332.34574,217.6443 -2.42431,-2.49634 -0.31842,-30.17193 c -0.21627,-20.49254 0.0447,-31.36048 0.81336,-33.87677 1.63743,-5.36001 5.58354,-6.72102 18.27198,-6.30194 9.42682,0.31134 10.02679,0.45952 12.32121,3.04312 l 2.41187,2.71583 v 32.41631 32.4163 l -2.45455,2.37587 c -2.33037,2.25568 -3.05509,2.37588 -14.32568,2.37588 -11.46616,0 -11.95385,-0.0852 -14.29546,-2.49633 z"
           id="path13"
           inkscape:label="calendar left tab" />
      </g>
      <path
         id="path6"
         style="fill:#d8b45b;fill-opacity:1"
         inkscape:label="projector background"
         d="m 482.50632,332.52972 -124.50001,0.16406 -5.83593,2.64648 c -7.85996,3.56421 -12.82299,7.52938 -16.6543,13.3086 -6.1562,9.28612 -6.06749,8.18812 -6.02539,74.29687 0.0373,58.54113 0.0971,60.40425 2.11133,65.61524 4.25416,11.00586 17.07945,21.00031 29.13086,22.70117 8.41069,1.18708 247.16188,1.14491 254.73828,-0.0449 12.23993,-1.92221 21.89427,-8.71139 27.73242,-19.50391 2.67901,-4.95245 2.78588,-5.73626 3.35352,-24.47461 0.32254,-10.64741 0.55558,-38.96128 0.51758,-62.91797 -0.0686,-43.24454 -0.0867,-43.59667 -2.39063,-49.11914 -2.98758,-7.16126 -10.77074,-15.40644 -17.59179,-18.63672 -3.13293,-1.48367 -8.31042,-2.85236 -12.68946,-3.35351 -4.06864,-0.46563 -63.42162,-0.77204 -131.89648,-0.68164 z m -61.5,20.54882 c 11.9992,-0.0505 15.06455,0.26517 21.45312,2.20703 17.99487,5.46975 34.92009,18.795 42.87891,33.75586 5.99689,11.27287 8.16797,20.32797 8.16797,34.0879 0,13.44108 -2.07284,21.80979 -8.2793,33.43554 -6.00659,11.25136 -18.18935,22.87077 -29.7207,28.34571 -4.675,2.2196 -11.20002,4.75715 -14.5,5.63867 -5.86281,1.56613 -28.11835,2.71148 -33.5,1.72461 -22.26314,-4.08255 -42.4032,-19.0765 -51.98243,-38.70117 -7.9303,-16.24655 -9.22908,-37.20307 -3.32812,-53.72071 7.34155,-20.55015 24.95316,-37.07827 47.14258,-44.24023 6.70848,-2.16527 9.41767,-2.48171 21.66797,-2.53321 z m 149.78125,19.79102 c 26.01575,-0.004 33.4817,0.27607 36.16992,1.36328 6.21589,2.51392 7.42031,8.58299 2.625,13.22461 l -2.92383,2.82813 -36.32617,-0.0293 c -25.44134,-0.0206 -36.92548,-0.36112 -38.32617,-1.13867 -7.08031,-3.93041 -5.70995,-13.09643 2.27929,-15.24414 2.21006,-0.59412 17.02876,-1.00091 36.50196,-1.00391 z m -15.0625,41.77344 c 4.60683,-0.01 9.80514,0.007 15.52539,0.0508 l 36.42969,0.27539 2.41211,2.71484 c 4.48674,5.05089 2.38933,11.39657 -4.36719,13.21289 -4.697,1.26266 -68.4447,1.1928 -73.00391,-0.0801 -2.29251,-0.64004 -3.78288,-1.92984 -4.93555,-4.26954 -1.53786,-3.12165 -1.53531,-3.5839 0.0293,-6.75976 0.9452,-1.91857 2.84352,-3.83924 4.3418,-4.39063 1.25436,-0.46161 9.74785,-0.72454 23.56836,-0.7539 z" />
      <g
         id="g16"
         inkscape:label="lenses">
        <path
           id="path8"
           style="fill:#d8b45b;fill-opacity:1"
           inkscape:label="path8"
           d="m 421.37936,371.94378 c -5.44418,-0.0432 -10.91776,0.37479 -14.37304,1.26953 -16.46501,4.26359 -30.53367,17.5374 -36.56055,34.49609 -3.01414,8.48129 -3.03941,21.94842 -0.0566,31.04493 5.5553,16.94196 22.09,31.36275 39.68554,34.61523 24.637,4.55408 47.85569,-6.72785 58.65821,-28.50195 4.12386,-8.31226 4.28098,-8.9754 4.63086,-19.5625 0.41534,-12.5677 -0.5221,-16.9697 -5.67383,-26.63868 -6.32041,-11.86239 -18.35265,-21.31368 -32.11524,-25.22656 -3.33644,-0.94859 -8.75112,-1.45292 -14.19531,-1.49609 z m -0.37304,16.91015 c 11.08777,-0.0243 16.30717,2.11992 24.58593,10.09766 7.19266,6.93112 10.18894,13.9752 10.32032,24.26367 0.0813,6.36693 -0.31717,8.0825 -3.18164,13.7168 -4.09921,8.06296 -12.0221,15.33431 -19.76563,18.13867 -5.68777,2.05986 -16.3582,2.60692 -21.45898,1.09961 -5.2974,-1.5654 -10.67909,-4.92897 -15.07422,-9.42187 -5.89289,-6.02398 -7.41835,-8.49456 -9.47657,-15.34766 -4.38999,-14.61706 3.59257,-31.33398 18.73633,-39.23438 5.83098,-3.04197 7.0011,-3.2942 15.31446,-3.3125 z" />
      </g>
      <path
         id="path4"
         style="fill:#d4af56;fill-opacity:1"
         d="m 374.38847,577.95524 c -3.46887,-3.35769 -2.02886,-8.18587 8.98786,-30.13527 l 10.08092,-20.08493 h 20.13104 c 16.97878,0 20.04572,0.21521 19.58617,1.3744 -0.8227,2.07519 -35.63365,47.25391 -37.91013,49.20092 -1.55072,1.32629 -3.8012,1.69391 -10.36976,1.69391 -7.21028,0 -8.6867,-0.28795 -10.5061,-2.04903 z m 221.94346,0.83909 c -2.22596,-1.73124 -38.82658,-49.44433 -38.82658,-50.61487 0,-0.26648 9.1125,-0.36659 20.25,-0.22248 l 20.25,0.26203 10.70516,20.8109 c 11.28745,21.94286 12.38422,25.56413 8.79484,29.03846 -1.69727,1.64288 -3.33333,1.9359 -10.80887,1.9359 -5.55073,0 -9.38427,-0.44752 -10.36455,-1.20994 z"
         inkscape:label="legs" />
    </g>
  </g>
</svg>
